<svg width="1024" height="1024" viewBox="0 0 1024 1024" fill="none" xmlns="http://www.w3.org/2000/svg">
<rect width="20" height="140" rx="10" transform="matrix(1 0 0 -1 136 741)" fill="white" style="fill:white;fill-opacity:1;"/>
<rect width="19.5187" height="90" rx="9.75936" transform="matrix(1 0 0 -1 202.902 691)" fill="white" style="fill:white;fill-opacity:1;"/>
<rect width="20" height="115" rx="10" transform="matrix(1 0 0 -1 269.323 716)" fill="white" style="fill:white;fill-opacity:1;"/>
<rect width="20" height="90" rx="10" transform="matrix(1 0 0 -1 336.226 691)" fill="white" style="fill:white;fill-opacity:1;"/>
<rect width="20" height="115" rx="10" transform="matrix(1 0 0 -1 403.128 716)" fill="white" style="fill:white;fill-opacity:1;"/>
<rect width="19.5187" height="90" rx="9.75936" transform="matrix(1 0 0 -1 470.03 691)" fill="white" style="fill:white;fill-opacity:1;"/>
<rect width="19.5187" height="90" rx="9.75936" transform="matrix(1 0 0 -1 536.451 691)" fill="white" style="fill:white;fill-opacity:1;"/>
<rect width="19" height="115" rx="9.5" transform="matrix(1 0 0 -1 602.872 716)" fill="white" style="fill:white;fill-opacity:1;"/>
<rect width="19" height="90" rx="9.5" transform="matrix(1 0 0 -1 668.774 691)" fill="white" style="fill:white;fill-opacity:1;"/>
<rect width="20" height="115" rx="10" transform="matrix(1 0 0 -1 734.677 716)" fill="white" style="fill:white;fill-opacity:1;"/>
<rect width="19.5187" height="90" rx="9.75936" transform="matrix(1 0 0 -1 801.579 691)" fill="white" style="fill:white;fill-opacity:1;"/>
<rect width="20" height="140" rx="10" transform="matrix(1 0 0 -1 868 741)" fill="white" style="fill:white;fill-opacity:1;"/>
<rect x="136" y="283" width="20" height="140" rx="10" fill="white" style="fill:white;fill-opacity:1;"/>
<rect x="202.902" y="333" width="19.5187" height="90" rx="9.75936" fill="white" style="fill:white;fill-opacity:1;"/>
<rect x="269.323" y="308" width="20" height="115" rx="10" fill="white" style="fill:white;fill-opacity:1;"/>
<rect x="336.226" y="333" width="20" height="90" rx="10" fill="white" style="fill:white;fill-opacity:1;"/>
<rect x="403.128" y="308" width="20" height="115" rx="10" fill="white" style="fill:white;fill-opacity:1;"/>
<rect x="470.03" y="333" width="19.5187" height="90" rx="9.75936" fill="white" style="fill:white;fill-opacity:1;"/>
<rect x="536.451" y="333" width="19.5187" height="90" rx="9.75936" fill="white" style="fill:white;fill-opacity:1;"/>
<rect x="602.872" y="308" width="19" height="115" rx="9.5" fill="white" style="fill:white;fill-opacity:1;"/>
<rect x="668.774" y="333" width="19" height="90" rx="9.5" fill="white" style="fill:white;fill-opacity:1;"/>
<rect x="734.677" y="308" width="20" height="115" rx="10" fill="white" style="fill:white;fill-opacity:1;"/>
<rect x="801.579" y="333" width="19.5187" height="90" rx="9.75936" fill="white" style="fill:white;fill-opacity:1;"/>
<rect x="868" y="283" width="20" height="140" rx="10" fill="white" style="fill:white;fill-opacity:1;"/>
</svg>
