<svg width="1024" height="1024" viewBox="0 0 1024 1024" fill="none" xmlns="http://www.w3.org/2000/svg">
<rect width="20" height="115" rx="10" transform="matrix(1 0 0 -1 136 715)" fill="white" fill-opacity="0.5" style="fill:white;fill-opacity:0.5;"/>
<rect width="19.5187" height="90" rx="9.75936" transform="matrix(1 0 0 -1 240.989 690)" fill="white" fill-opacity="0.5" style="fill:white;fill-opacity:0.5;"/>
<rect width="20" height="115" rx="10" transform="matrix(1 0 0 -1 345.497 715)" fill="white" fill-opacity="0.5" style="fill:white;fill-opacity:0.5;"/>
<rect width="19.5187" height="90" rx="9.75936" transform="matrix(1 0 0 -1 450.487 690)" fill="white" fill-opacity="0.5" style="fill:white;fill-opacity:0.5;"/>
<rect width="19.5187" height="90" rx="9.75936" transform="matrix(1 0 0 -1 554.995 690)" fill="white" fill-opacity="0.5" style="fill:white;fill-opacity:0.5;"/>
<rect width="19" height="115" rx="9.5" transform="matrix(1 0 0 -1 659.503 715)" fill="white" fill-opacity="0.5" style="fill:white;fill-opacity:0.5;"/>
<rect width="19.5187" height="90" rx="9.75936" transform="matrix(1 0 0 -1 763.492 690)" fill="white" fill-opacity="0.5" style="fill:white;fill-opacity:0.5;"/>
<rect width="20" height="115" rx="10" transform="matrix(1 0 0 -1 868 715)" fill="white" fill-opacity="0.5" style="fill:white;fill-opacity:0.5;"/>
<rect x="136" y="312" width="20" height="115" rx="10" fill="white" fill-opacity="0.5" style="fill:white;fill-opacity:0.5;"/>
<rect x="240.989" y="337" width="19.5187" height="90" rx="9.75936" fill="white" fill-opacity="0.5" style="fill:white;fill-opacity:0.5;"/>
<rect x="345.497" y="312" width="20" height="115" rx="10" fill="white" fill-opacity="0.5" style="fill:white;fill-opacity:0.5;"/>
<rect x="450.487" y="337" width="19.5187" height="90" rx="9.75936" fill="white" fill-opacity="0.5" style="fill:white;fill-opacity:0.5;"/>
<rect x="554.995" y="337" width="19.5187" height="90" rx="9.75936" fill="white" fill-opacity="0.5" style="fill:white;fill-opacity:0.5;"/>
<rect x="659.503" y="312" width="19" height="115" rx="9.5" fill="white" fill-opacity="0.5" style="fill:white;fill-opacity:0.5;"/>
<rect x="763.492" y="337" width="19.5187" height="90" rx="9.75936" fill="white" fill-opacity="0.5" style="fill:white;fill-opacity:0.5;"/>
<rect x="868" y="312" width="20" height="115" rx="10" fill="white" fill-opacity="0.5" style="fill:white;fill-opacity:0.5;"/>
</svg>
